:SAMPLES-PER-SECOND 30
:FULLY-SPECIFIED
:DEGREES
36
root  -23.76511041 38.90800176 26.6984444 3.773250103 -1.717109561 -2.333859682
lowerback  8.209289551 2.955019951 1.154600143
upperback  1.417999983 4.088190079 1.764860034
thorax  -3.174400091 2.02519989 0.7342630029
lowerneck  -15.26130009 6.267159939 -2.475889921
upperneck  20.0345993 9.878020287 -2.446480036
head  8.796039581 4.194859982 0.758374095
lclavicle  0 -5.34481991e-014 2.981770104e-014
lhumerus  -41.56280136 25.21260071 69.68789673
lradius  0.003583191894 6.643666666e-007 18.45440292
lwrist  -1.645157397e-007 -3.533851896e-007 -11.63679981
lhand  -5.505032044e-031 -15.8135004 33.60620117
lfingers  90 7.125020027 -90
lthumb  93.41605384 18.01962653 79.07819387
rclavicle  0 -5.34481991e-014 2.981770104e-014
rhumerus  -36.15309906 -19.56019783 -72.09010315
rradius  -1.296506525e-006 2.359789448e-007 42.67509842
rwrist  -2.281664457e-008 -8.593936229e-009 10.9076004
rhand  -1.345748685e-031 10.2737999 9.996669769
rfingers  -90 -7.125020027 -90
rthumb  -72.52445805 -22.91766803 -51.04506765
rfemur  -3.355433702 -1.30270052 26.40559959
rtibia  9.670418422e-007 1.119611625e-006 35.88269043
rfoot  2.556521167e-006 -17.90589333 -4.696177959
rtoes  2.336001174 19.8686595 -96.84438506
lfemur  -26.66449547 -2.215700626 -17.79580116
ltibia  -3.641206786e-005 2.004581745e-007 21.67038918
lfoot  -5.693161143e-007 -0.9687654376 -3.131699324
ltoes  -5.298979543 -19.31302686 -105.6655569
37
root  -23.71933404 38.94999947 26.98111046 3.739100218 -1.903648615 -2.835350275
lowerback  7.956799984 2.969929934 1.594860077
upperback  1.385509968 4.140379906 1.767199993
thorax  -3.036989927 2.047790051 0.4996440113
lowerneck  -15.43480015 6.100249767 -2.640690088
upperneck  20.29059982 9.636209488 -2.121590137
head  8.888050079 4.091989994 0.8752031326
lclavicle  0 -5.34481991e-014 2.981770104e-014
lhumerus  -41.70940018 26.03210068 69.06060028
lradius  0.003583191894 6.643666666e-007 18.20410156
lwrist  -1.645157397e-007 -3.533851896e-007 -12.61279964
lhand  -5.505032044e-031 -15.8135004 33.60620117
lfingers  90 7.125020027 -90
lthumb  93.41605384 18.01962653 79.07819387
rclavicle  0 -5.34481991e-014 2.981770104e-014
rhumerus  -36.27629852 -19.41259766 -72.26270294
rradius  -1.296506525e-006 2.359789448e-007 42.62200165
rwrist  -2.281664457e-008 -8.593936229e-009 10.05290031
rhand  -1.345748685e-031 10.2737999 9.996669769
rfingers  -90 -7.125020027 -90
rthumb  -72.52445805 -22.91766803 -51.04506765
rfemur  -3.370089531 -1.299449444 26.73839951
rtibia  9.670418422e-007 1.119611625e-006 36.64539719
rfoot  2.556521167e-006 -16.9971962 -4.207090378
rtoes  2.336001174 19.8686595 -96.84438506
lfemur  -26.28939819 -2.083890438 -17.32640266
ltibia  -3.641206786e-005 2.004581745e-007 22.03039169
lfoot  -5.693161143e-007 -1.379124284 -3.076029778
ltoes  -5.298979543 -19.31302686 -105.6655569
38
root  -23.66533355 39.0019995 27.26666608 3.707380056 -1.969648957 -3.016690254
lowerback  7.506700039 2.975919962 1.848160148
upperback  1.475569963 4.150400162 1.665449977
thorax  -2.667850018 2.054140091 0.2821579874
lowerneck  -15.75230026 5.986400127 -2.627029896
upperneck  20.59869957 9.495401382 -2.065669775
head  9.050049782 4.016200066 0.8937219977
lclavicle  0 -5.34481991e-014 2.981770104e-014
lhumerus  -41.58179855 26.66250038 68.66690063
lradius  0.003583191894 6.643666666e-007 17.96509743
lwrist  -1.645157397e-007 -3.533851896e-007 -13.22809982
lhand  -5.505032044e-031 -15.8135004 33.60620117
lfingers  90 7.125020027 -90
lthumb  93.41605384 18.01962653 79.07819387
rclavicle  0 -5.34481991e-014 2.981770104e-014
rhumerus  -36.06359863 -19.46240044 -72.46009827
rradius  -1.296506525e-006 2.359789448e-007 42.52289963
rwrist  -2.281664457e-008 -8.593936229e-009 9.656410217
rhand  -1.345748685e-031 10.2737999 9.996669769
rfingers  -90 -7.125020027 -90
rthumb  -72.52445805 -22.91766803 -51.04506765
rfemur  -3.483279705 -1.508890271 26.67360115
rtibia  9.670418422e-007 1.119611625e-006 37.65800095
rfoot  2.556521167e-006 -16.15119934 -3.615609169
rtoes  2.336001174 19.8686595 -96.84438506
lfemur  -25.84360313 -2.094218731 -17.24159431
ltibia  -3.641206786e-005 2.004581745e-007 22.25271034
lfoot  -5.693161143e-007 -1.854275823 -3.183380604
ltoes  -5.298979543 -19.31302686 -105.6655569
39
root  -23.62399965 39.0517768 27.51844511 3.667969704 -2.082231283 -3.149659872
lowerback  7.14136982 2.937570095 1.880319953
upperback  1.538890004 4.087649822 1.601400018
thorax  -2.392689943 2.025759935 0.2272920012
lowerneck  -15.84210014 5.914279938 -2.362169981
upperneck  20.77759933 9.405469894 -2.327150345
head  9.156959534 3.956619978 0.7613819242
lclavicle  0 -5.34481991e-014 2.981770104e-014
lhumerus  -41.58679962 27.88019943 67.91670227
lradius  0.003583191894 6.643666666e-007 17.51239586
lwrist  -1.645157397e-007 -3.533851896e-007 -14.33290005
lhand  -5.505032044e-031 -15.8135004 33.60620117
lfingers  90 7.125020027 -90
lthumb  93.41605384 18.01962653 79.07819387
rclavicle  0 -5.34481991e-014 2.981770104e-014
rhumerus  -35.80260086 -19.48830223 -72.62290192
rradius  -1.296506525e-006 2.359789448e-007 42.3348999
rwrist  -2.281664457e-008 -8.593936229e-009 10.30239964
rhand  -1.345748685e-031 10.2737999 9.996669769
rfingers  -90 -7.125020027 -90
rthumb  -72.52445805 -22.91766803 -51.04506765
rfemur  -3.827167749 -1.490510941 26.61950111
rtibia  9.670418422e-007 1.119611625e-006 38.9095993
rfoot  2.556521167e-006 -15.14120197 -2.945158958
rtoes  2.336001174 19.8686595 -96.84438506
lfemur  -25.30100822 -2.114788294 -17.16589165
ltibia  -3.641206786e-005 2.004581745e-007 22.23622322
lfoot  -5.693161143e-007 -2.324784279 -3.363110781
ltoes  -5.298979543 -19.31302686 -105.6655569
40
root  -23.60511089 39.09600025 27.74622159 3.585700035 -2.207588911 -2.925060034
lowerback  7.195240021 2.926729918 1.344649911
upperback  1.420770049 4.03523016 1.497840047
thorax  -2.574480057 2.001460075 0.415948987
lowerneck  -15.68900013 5.797659874 -2.353830099
upperneck  20.81290054 9.208100319 -2.20468998
head  9.134349823 3.880110025 0.7720749378
lclavicle  0 -5.34481991e-014 2.981770104e-014
lhumerus  -41.69319916 28.03470039 67.81340027
lradius  0.003583191894 6.643666666e-007 17.52300072
lwrist  -1.645157397e-007 -3.533851896e-007 -14.34500027
lhand  -5.505032044e-031 -15.8135004 33.60620117
lfingers  90 7.125020027 -90
lthumb  93.41605384 18.01962653 79.07819387
rclavicle  0 -5.34481991e-014 2.981770104e-014
rhumerus  -35.91329956 -19.30270004 -72.65529633
rradius  -1.296506525e-006 2.359789448e-007 42.0007019
rwrist  -2.281664457e-008 -8.593936229e-009 11.04039955
rhand  -1.345748685e-031 10.2737999 9.996669769
rfingers  -90 -7.125020027 -90
rthumb  -72.52445805 -22.91766803 -51.04506765
rfemur  -4.369922638 -1.383760214 26.24030113
rtibia  9.670418422e-007 1.119611625e-006 40.37540817
rfoot  2.556521167e-006 -13.99690342 -2.415281057
rtoes  2.336001174 19.8686595 -96.84438506
lfemur  -24.61071396 -2.061338425 -17.46179199
ltibia  -3.641206786e-005 2.004581745e-007 21.8723259
lfoot  -5.693161143e-007 -2.562393904 -3.347561121
ltoes  -5.298979543 -19.31302686 -105.6655569
